Coordinates
version=1
nRows=10
nColumns=40
inDegrees=yes

Units are S.I. units (second, meters, Newtons, ...)
Angles are in degrees.

endheader
time	pelvis_tilt	pelvis_list	pelvis_rotation	pelvis_tx	pelvis_ty	pelvis_tz	hip_flexion_r	hip_adduction_r	hip_rotation_r	knee_angle_r	knee_angle_r_beta	ankle_angle_r	subtalar_angle_r	mtp_angle_r	hip_flexion_l	hip_adduction_l	hip_rotation_l	knee_angle_l	knee_angle_l_beta	ankle_angle_l	subtalar_angle_l	mtp_angle_l	lumbar_extension	lumbar_bending	lumbar_rotation	arm_flex_r	arm_add_r	arm_rot_r	elbow_flex_r	pro_sup_r	wrist_flex_r	wrist_dev_r	arm_flex_l	arm_add_l	arm_rot_l	elbow_flex_l	pro_sup_l	wrist_flex_l	wrist_dev_l
     45.54000000	     -3.74900938	     -4.43469392	      2.16991193	      1.02967393	      0.93293207	      0.42520341	     27.07719483	     -5.47235977	     -4.57709045	     65.70395494	     65.70395494	      0.75199267	    -13.75499992	     -0.50352805	     15.75266917	     -4.97188406	     -8.55076159	     21.76439836	     21.76439836	     12.02927906	     -9.95230061	      0.25845360	    -10.44000093	      4.89695631	      0.95654316	     -3.85052788	    -14.32115509	     -2.03434768	     26.83645555	     45.93047632	      0.00000000	      0.00000000	     11.21233271	    -16.69252010	     -7.22381396	     51.43531820	     45.96884371	      0.00000000	      0.00000000
     45.55364286	     -3.72245609	     -4.58443939	      1.65130324	      1.02886245	      0.93378831	      0.42578137	     28.14608895	     -5.27589033	     -4.60409263	     64.88651694	     64.88651694	      0.70286983	    -13.94935066	     -0.39025825	     14.98901704	     -5.17807278	     -8.84774199	     21.19606392	     21.19606392	     12.16708898	    -10.07777443	      0.30746302	    -10.52708315	      4.97136892	      0.84121947	     -4.60058304	    -14.28732026	     -2.07156698	     26.51547608	     45.94431202	      0.00000000	      0.00000000	     11.73678304	    -16.98571940	     -7.46948193	     51.74241592	     46.00979701	      0.00000000	      0.00000000
     45.56728571	     -3.66420829	     -4.76001260	      1.13077935	      1.02806716	      0.93464985	      0.42642426	     29.07300163	     -5.00031597	     -4.63213380	     63.85188080	     63.85188080	      0.61624115	    -14.15047885	     -0.18483348	     14.17986962	     -5.40812227	     -9.16035672	     20.60796468	     20.60796468	     12.27858146	    -10.20152625	      0.29755641	    -10.67570606	      5.07500976	      0.76298806	     -5.39426422	    -14.27044581	     -2.17417538	     26.38820591	     45.95384783	      0.00000000	      0.00000000	     12.20242189	    -17.26964320	     -7.79476909	     52.26974735	     46.05945563	      0.00000000	      0.00000000
     45.58092857	     -3.58105112	     -4.91395057	      0.59392035	      1.02726497	      0.93546828	      0.42712649	     29.85858682	     -4.71392485	     -4.64581151	     62.56345683	     62.56345683	      0.53276871	    -14.21540899	      0.09491925	     13.33280404	     -5.61056456	     -9.49170551	     20.00020042	     20.00020042	     12.33566646	    -10.32675392	      0.19256985	    -10.88049877	      5.13879129	      0.72932320	     -6.19705495	    -14.26730816	     -2.36731374	     26.47482175	     45.96137075	      0.00000000	      0.00000000	     12.61282075	    -17.52248561	     -8.22974053	     53.01927299	     46.12292420	      0.00000000	      0.00000000
     45.59457143	     -3.53003497	     -5.04082670	      0.05580531	      1.02647376	      0.93611628	      0.42786015	     30.55042476	     -4.47201329	     -4.70492657	     60.98376722	     60.98376722	      0.54376244	    -14.02812544	      0.51589601	     12.50691199	     -5.76420955	     -9.80367858	     19.33671828	     19.33671828	     12.06511666	    -10.66715098	     -0.66451191	    -11.09774088	      5.17882995	      0.62733895	     -7.18216094	    -14.23242138	     -3.23917335	     27.61778741	     45.98371044	      0.00000000	      0.00000000	     12.61247813	    -17.69283342	     -9.43043768	     54.64558105	     46.29806299	      0.00000000	      0.00000000
     45.60821429	     -3.53087654	     -5.16657914	     -0.46072970	      1.02568516	      0.93664555	      0.42863770	     31.12861555	     -4.22116859	     -4.79946691	     59.00465762	     59.00465762	      0.49719497	    -13.70028662	      0.75004900	     11.80452221	     -5.93151294	    -10.16730718	     18.81699124	     18.81699124	     12.18236873	    -10.74001890	     -0.64950308	    -11.17322923	      5.25153466	      0.49754869	     -7.64530199	    -14.22201371	     -3.31280887	     27.52240382	     45.99088992	      0.00000000	      0.00000000	     13.01448765	    -17.95482899	     -9.59868055	     54.99033835	     46.32702994	      0.00000000	      0.00000000
     45.62185714	     -3.40974491	     -5.15729933	     -1.02342822	      1.02500560	      0.93731083	      0.42945340	     31.39564760	     -4.06998863	     -4.79248068	     56.59715272	     56.59715272	      0.48815211	    -13.15087325	      0.84519008	     10.85106561	     -5.92609893	    -10.62843345	     18.10246706	     18.10246706	     12.22367782	    -10.77945705	     -0.74964481	    -11.45932970	      5.17451196	      0.61513926	     -8.08890811	    -14.17552013	     -3.51356836	     27.61301820	     46.00131361	      0.00000000	      0.00000000	     13.43171203	    -18.11338976	     -9.91398497	     55.74335022	     46.37982386	      0.00000000	      0.00000000
     45.63550000	     -3.37693783	     -5.16329276	     -1.55773678	      1.02437718	      0.93775789	      0.43038497	     31.55902084	     -3.92724445	     -4.91846512	     53.73852008	     53.73852008	      0.45719243	    -12.29498430	      0.79450866	     10.04339320	     -5.93862841	    -11.05209508	     17.46792468	     17.46792468	     12.25141757	    -10.85240913	     -0.87218320	    -11.61035585	      5.10046703	      0.63108793	     -8.40208445	    -14.12807175	     -3.73290613	     27.76599454	     46.01104961	      0.00000000	      0.00000000	     13.73578462	    -18.23703383	    -10.17940844	     56.43496902	     46.42507612	      0.00000000	      0.00000000
     45.64914286	     -3.36894256	     -5.02310188	     -2.11082269	      1.02386781	      0.93804713	      0.43123967	     31.54171296	     -3.93524793	     -5.03285218	     50.40311742	     50.40311742	      0.21325838	    -11.26061832	     -0.23212018	      9.16902348	     -5.74651472	    -11.47873679	     16.64106993	     16.64106993	     12.06410809	    -11.01693009	     -1.27861826	    -11.75317673	      4.90593553	      0.67009946	     -8.68859162	    -13.99566897	     -4.33354384	     28.22306280	     46.04014079	      0.00000000	      0.00000000	     13.83074195	    -18.27414163	    -10.67407897	     57.65321417	     46.51229745	      0.00000000	      0.00000000
     45.66278571	     -3.32399364	     -4.87016329	     -2.63151978	      1.02344202	      0.93831850	      0.43219318	     31.24388454	     -3.94967783	     -5.27661388	     46.59816736	     46.59816736	      0.06664374	     -9.90980564	     -1.23557403	      8.29888725	     -5.54822923	    -11.91426334	     15.90573680	     15.90573680	     12.00768632	    -11.07891155	     -1.45441889	    -11.94653551	      4.70436263	      0.73612726	     -8.70875128	    -13.86867802	     -4.75066903	     28.37907159	     46.06918793	      0.00000000	      0.00000000	     14.07227713	    -18.32187077	    -10.89474475	     58.35457813	     46.56706594	      0.00000000	      0.00000000
